<svg width="1045" height="851" viewBox="0 0 1045 851" fill="none" xmlns="http://www.w3.org/2000/svg">
<path d="M580.917 552.977C580.954 554.312 580.978 555.649 580.991 556.989L579.991 556.998C579.997 557.665 580 558.332 580 559C580 559.668 579.997 560.336 579.991 561.003L580.991 561.012C580.978 562.351 580.954 563.689 580.917 565.023L579.917 564.995C579.88 566.324 579.831 567.649 579.77 568.973L580.769 569.019C580.708 570.352 580.634 571.682 580.548 573.01L579.55 572.945C579.464 574.276 579.366 575.603 579.255 576.928L580.252 577.011C580.141 578.342 580.017 579.67 579.882 580.996L578.887 580.894C578.753 582.214 578.606 583.532 578.447 584.846L579.44 584.966C579.279 586.295 579.106 587.621 578.921 588.944L577.931 588.806C577.746 590.123 577.55 591.436 577.342 592.747L578.33 592.904C578.121 594.22 577.9 595.533 577.667 596.843L576.682 596.668C576.449 597.979 576.203 599.287 575.946 600.592L576.927 600.785C576.669 602.096 576.399 603.403 576.117 604.706L575.139 604.495C574.858 605.792 574.566 607.086 574.261 608.377L575.235 608.606C574.928 609.907 574.609 611.204 574.279 612.497L573.31 612.25C572.981 613.538 572.641 614.822 572.288 616.103L573.252 616.368C572.898 617.654 572.533 618.937 572.156 620.215L571.197 619.932C570.821 621.207 570.433 622.478 570.034 623.745L570.988 624.046C570.587 625.319 570.175 626.589 569.751 627.854L568.803 627.536C568.381 628.796 567.947 630.052 567.503 631.303L568.445 631.638C567.998 632.895 567.54 634.149 567.071 635.398L566.135 635.046C565.668 636.29 565.189 637.529 564.7 638.764L565.629 639.133C565.138 640.374 564.635 641.61 564.121 642.842L563.198 642.457C562.687 643.683 562.164 644.904 561.631 646.121L562.547 646.522C562.012 647.744 561.466 648.962 560.909 650.174L560 649.757C559.445 650.964 558.88 652.167 558.304 653.365L559.205 653.799C558.627 655.001 558.039 656.199 557.439 657.392L556.546 656.943C555.95 658.129 555.343 659.311 554.726 660.488L555.612 660.952C554.992 662.134 554.362 663.311 553.722 664.483L552.844 664.003C552.207 665.169 551.56 666.33 550.903 667.486L551.772 667.981C551.113 669.139 550.444 670.293 549.764 671.441L548.904 670.932C548.227 672.075 547.541 673.214 546.845 674.347L547.697 674.871C546.998 676.008 546.289 677.14 545.57 678.267L544.727 677.729C544.014 678.848 543.291 679.961 542.558 681.069L543.392 681.62C542.656 682.733 541.911 683.84 541.156 684.942L540.331 684.377C539.579 685.474 538.817 686.565 538.046 687.652L538.862 688.23C538.091 689.316 537.311 690.396 536.522 691.471L535.716 690.879C534.93 691.949 534.135 693.014 533.33 694.074L534.126 694.678C533.318 695.742 532.501 696.8 531.675 697.852L530.889 697.235C530.07 698.278 529.242 699.315 528.405 700.347L529.181 700.977C528.342 702.012 527.493 703.041 526.636 704.065L525.869 703.423C525.015 704.443 524.152 705.456 523.28 706.464L524.037 707.119C523.166 708.126 522.286 709.128 521.397 710.124L520.651 709.458C519.767 710.448 518.875 711.433 517.975 712.411L518.711 713.088C517.807 714.071 516.894 715.047 515.974 716.017L515.248 715.329C514.334 716.292 513.412 717.249 512.481 718.2L513.196 718.9C512.265 719.852 511.325 720.797 510.378 721.737L509.674 721.027C508.73 721.963 507.778 722.893 506.818 723.817L507.512 724.537C506.55 725.463 505.581 726.382 504.604 727.294L503.921 726.564C502.952 727.469 501.976 728.368 500.991 729.26L501.663 730.001C500.675 730.897 499.68 731.787 498.676 732.67L498.016 731.92C497.017 732.799 496.01 733.672 494.996 734.539L495.646 735.299C494.635 736.164 493.617 737.021 492.591 737.873L491.953 737.103C490.931 737.952 489.902 738.794 488.865 739.629L489.493 740.408C488.453 741.246 487.406 742.078 486.351 742.904L485.735 742.117C484.691 742.934 483.64 743.745 482.582 744.549L483.187 745.345C482.126 746.151 481.059 746.951 479.985 747.744L479.391 746.939C478.321 747.73 477.243 748.513 476.159 749.29L476.742 750.103C475.659 750.879 474.569 751.649 473.473 752.412L472.901 751.591C471.813 752.349 470.717 753.1 469.616 753.844L470.175 754.673C469.07 755.42 467.958 756.16 466.839 756.893L466.291 756.057C465.178 756.786 464.06 757.509 462.934 758.225L463.471 759.069C462.349 759.783 461.221 760.49 460.086 761.19L459.561 760.339C458.43 761.037 457.294 761.728 456.151 762.413L456.665 763.27C455.518 763.957 454.365 764.637 453.206 765.309L452.704 764.445C451.558 765.11 450.406 765.768 449.249 766.42L449.739 767.292C448.578 767.945 447.412 768.591 446.239 769.231L445.76 768.353C444.592 768.99 443.418 769.62 442.238 770.244L442.705 771.128C441.527 771.75 440.343 772.365 439.154 772.974L438.699 772.083C437.518 772.688 436.331 773.285 435.14 773.875L435.583 774.771C434.388 775.363 433.187 775.948 431.98 776.525L431.549 775.623C430.348 776.198 429.142 776.766 427.931 777.327L428.351 778.234C427.145 778.793 425.933 779.344 424.717 779.888L424.308 778.975C423.096 779.518 421.878 780.053 420.655 780.581L421.052 781.499C419.825 782.029 418.594 782.552 417.357 783.067L416.972 782.144C415.748 782.654 414.519 783.157 413.285 783.653L413.658 784.581C412.422 785.077 411.182 785.566 409.938 786.048L409.577 785.116C408.336 785.596 407.09 786.069 405.84 786.535L406.19 787.472C404.939 787.938 403.684 788.396 402.424 788.847L402.087 787.906C400.839 788.353 399.587 788.792 398.331 789.225L398.656 790.17C397.395 790.604 396.131 791.03 394.861 791.449L394.548 790.5C393.283 790.917 392.013 791.327 390.739 791.73L391.041 792.684C389.773 793.085 388.501 793.478 387.224 793.864L386.935 792.907C385.664 793.292 384.39 793.669 383.112 794.038L383.389 794.999C382.107 795.369 380.821 795.733 379.531 796.088L379.265 795.124C377.982 795.478 376.696 795.824 375.406 796.163L375.66 797.13C374.374 797.467 373.084 797.797 371.791 798.12L371.549 797.149C370.26 797.471 368.966 797.785 367.67 798.091L367.9 799.065C366.599 799.372 365.295 799.672 363.987 799.964L363.769 798.988C362.474 799.277 361.177 799.559 359.876 799.833L360.082 800.812C358.78 801.086 357.474 801.353 356.165 801.612L355.971 800.631C354.665 800.89 353.357 801.141 352.045 801.384L352.227 802.367C350.914 802.611 349.598 802.847 348.278 803.075L348.108 802.09C346.802 802.315 345.494 802.534 344.183 802.744L344.341 803.732C343.026 803.943 341.707 804.147 340.386 804.343L340.239 803.353C338.921 803.549 337.601 803.737 336.277 803.917L336.412 804.908C335.092 805.087 333.77 805.259 332.444 805.424L332.321 804.431C331.006 804.594 329.687 804.75 328.366 804.898L328.477 805.892C327.151 806.04 325.823 806.18 324.492 806.313L324.393 805.318C323.066 805.451 321.736 805.576 320.404 805.693L320.492 806.689C319.169 806.805 317.843 806.914 316.515 807.015L316.439 806.018C315.116 806.119 313.79 806.212 312.462 806.297L312.526 807.295C311.194 807.381 309.859 807.458 308.522 807.529L308.47 806.53C307.14 806.6 305.808 806.662 304.474 806.716L304.514 807.715C303.188 807.769 301.859 807.816 300.527 807.854L300.498 806.855C299.171 806.893 297.841 806.924 296.509 806.948L296.526 807.947C295.19 807.971 293.852 807.986 292.512 807.994L292.506 806.994C291.838 806.998 291.169 807 290.5 807C289.831 807 289.162 806.998 288.493 806.994L288.487 807.994C287.147 807.986 285.809 807.971 284.473 807.947L284.491 806.948C283.159 806.924 281.829 806.893 280.501 806.855L280.472 807.854C279.141 807.816 277.812 807.769 276.485 807.715L276.526 806.716C275.191 806.662 273.859 806.6 272.53 806.53L272.477 807.529C271.14 807.458 269.806 807.381 268.473 807.295L268.538 806.297C267.209 806.212 265.884 806.119 264.56 806.018L264.485 807.015C263.156 806.914 261.831 806.805 260.508 806.689L260.596 805.693C259.263 805.576 257.934 805.451 256.607 805.318L256.507 806.313C255.176 806.18 253.848 806.04 252.523 805.891L252.634 804.898C251.313 804.75 249.994 804.594 248.678 804.431L248.555 805.424C247.23 805.259 245.907 805.087 244.588 804.908L244.723 803.917C243.399 803.737 242.078 803.549 240.761 803.353L240.614 804.343C239.292 804.147 237.974 803.943 236.658 803.732L236.817 802.744C235.506 802.534 234.197 802.315 232.892 802.09L232.722 803.075C231.402 802.847 230.085 802.611 228.772 802.367L228.955 801.384C227.643 801.141 226.334 800.89 225.029 800.631L224.835 801.612C223.526 801.353 222.22 801.086 220.918 800.812L221.124 799.833C219.823 799.559 218.525 799.277 217.231 798.988L217.013 799.964C215.705 799.672 214.401 799.372 213.1 799.064L213.33 798.091C212.033 797.785 210.74 797.471 209.451 797.149L209.209 798.12C207.915 797.797 206.626 797.467 205.34 797.13L205.594 796.162C204.304 795.824 203.017 795.478 201.735 795.124L201.469 796.088C200.179 795.733 198.893 795.369 197.61 794.999L197.888 794.038C196.61 793.668 195.335 793.292 194.065 792.907L193.775 793.864C192.499 793.478 191.227 793.085 189.959 792.684L190.26 791.73C188.987 791.327 187.717 790.917 186.452 790.5L186.138 791.449C184.869 791.03 183.604 790.604 182.344 790.17L182.669 789.225C181.412 788.792 180.16 788.353 178.912 787.906L178.575 788.847C177.316 788.396 176.061 787.937 174.81 787.472L175.159 786.534C173.909 786.069 172.664 785.596 171.423 785.116L171.062 786.048C169.817 785.566 168.577 785.077 167.342 784.581L167.715 783.653C166.481 783.157 165.252 782.654 164.027 782.144L163.643 783.067C162.406 782.552 161.175 782.029 159.948 781.499L160.344 780.581C159.122 780.053 157.904 779.518 156.691 778.975L156.283 779.888C155.067 779.344 153.855 778.793 152.649 778.234L153.069 777.327C151.858 776.766 150.652 776.198 149.451 775.623L149.019 776.525C147.813 775.947 146.612 775.363 145.416 774.771L145.86 773.874C144.668 773.284 143.482 772.687 142.301 772.083L141.846 772.974C140.656 772.365 139.473 771.75 138.295 771.128L138.762 770.243C137.582 769.62 136.408 768.99 135.239 768.353L134.761 769.23C133.588 768.591 132.422 767.945 131.261 767.291L131.751 766.42C130.593 765.768 129.441 765.11 128.295 764.444L127.793 765.309C126.635 764.637 125.482 763.957 124.335 763.27L124.849 762.412C123.706 761.728 122.569 761.037 121.439 760.339L120.913 761.19C119.779 760.49 118.651 759.782 117.529 759.069L118.065 758.225C116.94 757.509 115.821 756.786 114.709 756.057L114.161 756.893C113.042 756.16 111.93 755.42 110.824 754.673L111.384 753.844C110.282 753.1 109.187 752.349 108.098 751.591L107.527 752.412C106.431 751.649 105.341 750.879 104.258 750.103L104.84 749.29C103.756 748.513 102.679 747.73 101.609 746.939L101.015 747.744C99.9407 746.951 98.8734 746.151 97.813 745.345L98.4182 744.549C97.3602 743.745 96.3091 742.934 95.2651 742.116L94.6486 742.904C93.5942 742.078 92.5469 741.246 91.5069 740.408L92.1345 739.629C91.0982 738.794 90.069 737.952 89.0471 737.103L88.4084 737.873C87.3828 737.021 86.3645 736.163 85.3537 735.299L86.0035 734.539C84.9896 733.672 83.9831 732.799 82.9842 731.919L82.3234 732.67C81.3202 731.787 80.3246 730.897 79.3366 730.001L80.0084 729.26C79.0241 728.368 78.0475 727.469 77.0786 726.564L76.396 727.294C75.4189 726.381 74.4496 725.462 73.4883 724.537L74.1817 723.817C73.2219 722.893 72.27 721.963 71.3261 721.027L70.6219 721.737C69.6745 720.797 68.7351 719.851 67.8039 718.899L68.5187 718.2C67.5881 717.249 66.6658 716.292 65.7517 715.329L65.0263 716.017C64.1055 715.047 63.1931 714.07 62.2892 713.088L63.025 712.411C62.1245 711.432 61.2324 710.448 60.3489 709.458L59.6027 710.124C58.7142 709.128 57.8343 708.126 56.963 707.118L57.7195 706.464C56.8478 705.456 55.9849 704.442 55.1308 703.423L54.3643 704.065C53.5068 703.041 52.6582 702.012 51.8185 700.977L52.5951 700.347C51.7582 699.315 50.9302 698.277 50.1113 697.234L49.3247 697.852C48.4985 696.8 47.6815 695.742 46.8736 694.678L47.6699 694.073C46.8653 693.014 46.0699 691.949 45.2838 690.879L44.4778 691.471C43.6885 690.396 42.9085 689.316 42.1379 688.23L42.9534 687.651C42.1825 686.565 41.421 685.473 40.6691 684.376L39.8442 684.942C39.0891 683.84 38.3436 682.733 37.6077 681.62L38.4418 681.068C37.709 679.961 36.9859 678.847 36.2726 677.729L35.4295 678.267C34.7108 677.14 34.0021 676.008 33.3033 674.87L34.1553 674.347C33.4589 673.214 32.7725 672.075 32.0962 670.932L31.2354 671.441C30.5562 670.292 29.8871 669.139 29.2281 667.98L30.0973 667.486C29.4398 666.33 28.7925 665.169 28.1554 664.003L27.2778 664.482C26.6375 663.31 26.0075 662.134 25.3879 660.952L26.2735 660.487C25.6566 659.311 25.0501 658.129 24.4541 656.943L23.5605 657.391C22.9613 656.199 22.3726 655.001 21.7945 653.798L22.6958 653.365C22.1199 652.167 21.5545 650.964 21 649.757L20.0913 650.174C19.5342 648.961 18.988 647.744 18.4527 646.522L19.3686 646.121C18.8355 644.904 18.3132 643.682 17.8018 642.456L16.8789 642.841C16.3651 641.609 15.8623 640.373 15.3706 639.132L16.3003 638.764C15.8108 637.529 15.3323 636.289 14.865 635.046L13.9289 635.397C13.4597 634.148 13.0016 632.895 12.5548 631.637L13.4971 631.302C13.0526 630.051 12.6193 628.796 12.1973 627.536L11.2491 627.854C10.8252 626.588 10.4127 625.319 10.0117 624.045L10.9656 623.745C10.5666 622.478 10.1791 621.207 9.80315 619.932L8.84399 620.215C8.46692 618.936 8.10138 617.654 7.74748 616.367L8.71167 616.102C8.35939 614.822 8.01871 613.537 7.68971 612.249L6.72082 612.497C6.39049 611.203 6.0719 609.906 5.76513 608.606L6.73843 608.376C6.4341 607.086 6.14146 605.792 5.86063 604.494L4.88326 604.706C4.60111 603.402 4.33082 602.095 4.07247 600.785L5.05359 600.591C4.79646 599.287 4.55123 597.979 4.31798 596.668L3.33343 596.843C3.10042 595.533 2.87931 594.22 2.67021 592.903L3.65783 592.746C3.4497 591.436 3.25352 590.122 3.06939 588.805L2.07902 588.944C1.89403 587.621 1.72114 586.295 1.56045 584.965L2.55322 584.845C2.39435 583.531 2.24746 582.214 2.11264 580.894L1.11782 580.995C0.982506 579.67 0.859306 578.342 0.748311 577.011L1.74485 576.928C1.63437 575.603 1.53604 574.275 1.44995 572.945L0.452038 573.009C0.366136 571.682 0.292369 570.351 0.230828 569.018L1.22977 568.972C1.16869 567.649 1.11971 566.323 1.08292 564.995L0.0833069 565.023C0.0463511 563.688 0.0216444 562.351 0.00927949 561.011L1.00924 561.002C1.00308 560.335 1 559.668 1 559C1 558.332 1.00308 557.664 1.00924 556.997L0.00928428 556.988C0.0216524 555.649 0.0463622 554.311 0.0833211 552.977L1.08294 553.005C1.11973 551.676 1.16871 550.351 1.22979 549.027L0.230852 548.981C0.292395 547.648 0.366166 546.318 0.452071 544.99L1.44998 545.055C1.53608 543.724 1.63441 542.397 1.74489 541.072L0.748352 540.989C0.85935 539.658 0.982553 538.33 1.11787 537.004L2.11269 537.106C2.24751 535.786 2.3944 534.468 2.55328 533.154L1.56051 533.034C1.7212 531.705 1.89409 530.379 2.07909 529.056L3.06945 529.194C3.25359 527.877 3.44977 526.564 3.65791 525.253L2.67029 525.096C2.87939 523.78 3.1005 522.467 3.33351 521.157L4.31806 521.332C4.55131 520.021 4.79655 518.713 5.05367 517.408L4.07256 517.215C4.33091 515.904 4.60121 514.597 4.88335 513.294L5.86072 513.505C6.14156 512.208 6.4342 510.914 6.73853 509.623L5.76523 509.394C6.072 508.093 6.3906 506.796 6.72093 505.503L7.68982 505.75C8.01882 504.462 8.35951 503.178 8.71178 501.897L7.7476 501.632C8.1015 500.346 8.46704 499.063 8.84412 497.785L9.80328 498.068C10.1793 496.793 10.5668 495.522 10.9657 494.255L10.0119 493.954C10.4129 492.681 10.8254 491.411 11.2493 490.146L12.1975 490.464C12.6194 489.204 13.0527 487.948 13.4973 486.697L12.555 486.362C13.0017 485.105 13.4598 483.851 13.9291 482.602L14.8652 482.954C15.3325 481.71 15.8109 480.471 16.3004 479.236L15.3708 478.867C15.8625 477.626 16.3652 476.39 16.879 475.158L17.802 475.543C18.3133 474.317 18.8356 473.096 19.3688 471.879L18.4528 471.478C18.9881 470.256 19.5344 469.038 20.0914 467.826L21.0001 468.243C21.5547 467.036 22.12 465.833 22.696 464.635L21.7947 464.201C22.3727 462.999 22.9614 461.801 23.5607 460.608L24.4543 461.057C25.0503 459.871 25.6568 458.689 26.2737 457.512L25.388 457.048C26.0076 455.866 26.6376 454.689 27.278 453.517L28.1555 453.997C28.7926 452.831 29.44 451.67 30.0975 450.514L29.2283 450.019C29.8872 448.861 30.5564 447.707 31.2356 446.559L32.0963 447.068C32.7727 445.925 33.4591 444.786 34.1554 443.653L33.3034 443.129C34.0022 441.992 34.711 440.86 35.4297 439.733L36.2728 440.271C36.9861 439.152 37.7092 438.039 38.442 436.931L37.6079 436.38C38.3437 435.267 39.0892 434.16 39.8444 433.058L40.6692 433.623C41.4211 432.526 42.1826 431.435 42.9536 430.348L42.1381 429.77C42.9087 428.684 43.6887 427.604 44.478 426.529L45.284 427.121C46.0701 426.051 46.8655 424.986 47.6701 423.926L46.8738 423.321C47.6816 422.258 48.4987 421.2 49.3249 420.148L50.1115 420.765C50.9304 419.722 51.7584 418.685 52.5953 417.653L51.8187 417.023C52.6584 415.988 53.507 414.959 54.3644 413.935L55.131 414.577C55.9851 413.557 56.848 412.544 57.7196 411.536L56.9632 410.881C57.8345 409.874 58.7144 408.872 59.6029 407.876L60.3491 408.542C61.2326 407.552 62.1247 406.567 63.0252 405.589L62.2894 404.912C63.1933 403.929 64.1057 402.953 65.0265 401.983L65.7518 402.671C66.6659 401.708 67.5883 400.751 68.5189 399.8L67.8041 399.1C68.7353 398.148 69.6747 397.203 70.6221 396.263L71.3263 396.973C72.2702 396.037 73.2221 395.107 74.1819 394.183L73.4885 393.463C74.4498 392.537 75.4191 391.618 76.3962 390.706L77.0788 391.436C78.0477 390.531 79.0243 389.632 80.0086 388.74L79.3368 387.999C80.3248 387.103 81.3204 386.213 82.3236 385.33L82.9844 386.08C83.9833 385.201 84.9898 384.328 86.0037 383.461L85.3539 382.701C86.3648 381.836 87.383 380.979 88.4086 380.127L89.0474 380.897C90.0692 380.048 91.0984 379.206 92.1347 378.371L91.5071 377.592C92.5472 376.754 93.5944 375.922 94.6489 375.096L95.2653 375.883C96.3093 375.066 97.3604 374.255 98.4184 373.451L97.8132 372.655C98.8736 371.849 99.9409 371.049 101.015 370.256L101.609 371.061C102.679 370.27 103.757 369.487 104.841 368.71L104.258 367.897C105.341 367.121 106.431 366.351 107.527 365.588L108.099 366.409C109.187 365.651 110.283 364.9 111.384 364.156L110.825 363.327C111.93 362.58 113.042 361.84 114.161 361.107L114.709 361.943C115.822 361.213 116.94 360.491 118.066 359.775L117.529 358.931C118.651 358.217 119.779 357.51 120.914 356.81L121.439 357.661C122.57 356.963 123.706 356.272 124.849 355.587L124.335 354.73C125.482 354.043 126.635 353.363 127.794 352.691L128.296 353.555C129.442 352.89 130.594 352.232 131.751 351.58L131.261 350.709C132.422 350.055 133.588 349.409 134.761 348.769L135.24 349.647C136.408 349.01 137.582 348.38 138.762 347.756L138.295 346.872C139.473 346.25 140.657 345.635 141.846 345.026L142.301 345.917C143.482 345.312 144.669 344.715 145.86 344.125L145.417 343.229C146.612 342.637 147.813 342.052 149.02 341.475L149.451 342.377C150.652 341.802 151.858 341.234 153.069 340.673L152.649 339.766C153.855 339.207 155.067 338.656 156.283 338.112L156.692 339.025C157.904 338.482 159.122 337.947 160.345 337.419L159.948 336.501C161.175 335.971 162.406 335.448 163.643 334.933L164.028 335.856C165.252 335.346 166.481 334.843 167.715 334.347L167.342 333.419C168.578 332.923 169.818 332.434 171.062 331.952L171.423 332.884C172.664 332.404 173.91 331.931 175.16 331.465L174.81 330.528C176.061 330.062 177.316 329.604 178.576 329.153L178.913 330.094C180.161 329.647 181.413 329.208 182.669 328.775L182.344 327.83C183.605 327.396 184.869 326.97 186.139 326.551L186.452 327.5C187.717 327.083 188.987 326.673 190.261 326.27L189.959 325.316C191.227 324.915 192.499 324.522 193.776 324.136L194.065 325.093C195.336 324.708 196.61 324.331 197.888 323.962L197.611 323.001C198.893 322.631 200.179 322.267 201.469 321.912L201.735 322.876C203.018 322.522 204.304 322.176 205.594 321.837L205.34 320.87C206.626 320.533 207.916 320.203 209.209 319.88L209.451 320.851C210.74 320.529 212.033 320.215 213.33 319.909L213.1 318.935C214.401 318.628 215.705 318.328 217.013 318.036L217.231 319.012C218.525 318.723 219.823 318.441 221.124 318.167L220.918 317.188C222.22 316.914 223.526 316.647 224.835 316.388L225.029 317.369C226.335 317.11 227.643 316.859 228.955 316.616L228.773 315.633C230.086 315.389 231.402 315.153 232.722 314.925L232.892 315.91C234.198 315.685 235.506 315.466 236.817 315.256L236.659 314.268C237.974 314.057 239.293 313.853 240.614 313.657L240.761 314.647C242.079 314.451 243.399 314.263 244.723 314.083L244.588 313.092C245.908 312.913 247.23 312.741 248.556 312.576L248.679 313.569C249.994 313.406 251.313 313.25 252.634 313.102L252.523 312.109C253.849 311.96 255.177 311.82 256.508 311.687L256.607 312.682C257.934 312.549 259.264 312.424 260.596 312.307L260.508 311.311C261.831 311.195 263.157 311.086 264.485 310.985L264.561 311.982C265.884 311.881 267.21 311.788 268.538 311.703L268.474 310.705C269.806 310.619 271.141 310.542 272.478 310.471L272.53 311.47C273.86 311.4 275.192 311.338 276.526 311.284L276.486 310.285C277.812 310.231 279.142 310.184 280.473 310.146L280.502 311.145C281.829 311.107 283.159 311.076 284.491 311.052L284.474 310.053C285.81 310.029 287.148 310.014 288.488 310.006L288.494 311.006C289.162 311.002 289.831 311 290.5 311C291.169 311 291.838 311.002 292.507 311.006L292.513 310.006C293.853 310.014 295.191 310.029 296.527 310.053L296.509 311.052C297.841 311.076 299.171 311.107 300.499 311.145L300.528 310.146C301.859 310.184 303.188 310.231 304.515 310.285L304.474 311.284C305.809 311.338 307.141 311.4 308.47 311.47L308.523 310.471C309.86 310.542 311.194 310.619 312.527 310.705L312.462 311.703C313.791 311.788 315.116 311.881 316.44 311.982L316.515 310.985C317.844 311.086 319.169 311.195 320.492 311.311L320.404 312.307C321.737 312.424 323.066 312.549 324.393 312.682L324.493 311.687C325.824 311.82 327.152 311.96 328.477 312.109L328.366 313.102C329.687 313.25 331.006 313.406 332.322 313.569L332.445 312.576C333.77 312.741 335.093 312.913 336.412 313.092L336.277 314.083C337.601 314.263 338.922 314.451 340.239 314.647L340.386 313.657C341.708 313.853 343.026 314.057 344.342 314.268L344.183 315.256C345.494 315.466 346.803 315.685 348.108 315.91L348.278 314.925C349.598 315.153 350.915 315.389 352.228 315.633L352.045 316.616C353.357 316.859 354.666 317.11 355.971 317.369L356.165 316.388C357.474 316.647 358.78 316.914 360.082 317.188L359.876 318.167C361.177 318.441 362.475 318.723 363.769 319.012L363.987 318.036C365.295 318.328 366.599 318.628 367.9 318.936L367.67 319.909C368.967 320.215 370.26 320.529 371.549 320.851L371.791 319.88C373.085 320.203 374.374 320.533 375.66 320.87L375.406 321.838C376.696 322.176 377.983 322.522 379.265 322.876L379.531 321.912C380.821 322.267 382.108 322.631 383.39 323.001L383.112 323.962C384.39 324.332 385.665 324.708 386.935 325.093L387.225 324.136C388.501 324.522 389.773 324.915 391.041 325.316L390.74 326.27C392.013 326.673 393.283 327.083 394.548 327.5L394.862 326.551C396.131 326.97 397.396 327.396 398.656 327.83L398.331 328.775C399.588 329.208 400.84 329.647 402.088 330.094L402.425 329.153C403.684 329.604 404.939 330.063 406.19 330.528L405.841 331.466C407.091 331.931 408.336 332.404 409.577 332.884L409.938 331.952C411.183 332.434 412.423 332.923 413.658 333.419L413.285 334.347C414.519 334.843 415.748 335.346 416.973 335.856L417.357 334.933C418.594 335.448 419.825 335.971 421.052 336.501L420.656 337.419C421.878 337.947 423.096 338.482 424.309 339.025L424.717 338.112C425.933 338.656 427.145 339.207 428.351 339.766L427.931 340.673C429.142 341.234 430.348 341.802 431.549 342.377L431.981 341.475C433.187 342.053 434.388 342.637 435.584 343.229L435.14 344.126C436.332 344.716 437.518 345.313 438.699 345.917L439.154 345.026C440.344 345.635 441.527 346.25 442.705 346.872L442.238 347.757C443.418 348.38 444.592 349.01 445.761 349.647L446.239 348.769C447.412 349.409 448.578 350.055 449.739 350.709L449.249 351.58C450.407 352.232 451.559 352.89 452.705 353.556L453.207 352.691C454.365 353.363 455.518 354.043 456.665 354.73L456.151 355.588C457.294 356.272 458.431 356.963 459.561 357.661L460.087 356.81C461.221 357.51 462.349 358.218 463.471 358.931L462.935 359.775C464.06 360.491 465.179 361.214 466.291 361.943L466.839 361.107C467.958 361.84 469.07 362.58 470.176 363.327L469.616 364.156C470.718 364.9 471.813 365.651 472.902 366.409L473.473 365.588C474.569 366.351 475.659 367.121 476.742 367.897L476.16 368.71C477.244 369.487 478.321 370.27 479.391 371.061L479.985 370.256C481.059 371.049 482.127 371.849 483.187 372.655L482.582 373.451C483.64 374.255 484.691 375.066 485.735 375.884L486.351 375.096C487.406 375.922 488.453 376.754 489.493 377.592L488.865 378.371C489.902 379.206 490.931 380.048 491.953 380.897L492.592 380.127C493.617 380.979 494.635 381.837 495.646 382.701L494.997 383.461C496.01 384.328 497.017 385.201 498.016 386.081L498.677 385.33C499.68 386.213 500.675 387.103 501.663 387.999L500.992 388.74C501.976 389.632 502.953 390.531 503.921 391.437L504.604 390.706C505.581 391.619 506.55 392.538 507.512 393.463L506.818 394.183C507.778 395.107 508.73 396.037 509.674 396.973L510.378 396.263C511.326 397.203 512.265 398.149 513.196 399.101L512.481 399.8C513.412 400.751 514.334 401.708 515.248 402.671L515.974 401.983C516.894 402.953 517.807 403.93 518.711 404.912L517.975 405.589C518.875 406.568 519.768 407.552 520.651 408.542L521.397 407.876C522.286 408.872 523.166 409.874 524.037 410.882L523.281 411.536C524.152 412.544 525.015 413.558 525.869 414.577L526.636 413.935C527.493 414.959 528.342 415.988 529.182 417.023L528.405 417.653C529.242 418.685 530.07 419.722 530.889 420.766L531.675 420.148C532.501 421.2 533.319 422.258 534.126 423.322L533.33 423.927C534.135 424.986 534.93 426.051 535.716 427.121L536.522 426.529C537.312 427.604 538.091 428.684 538.862 429.77L538.047 430.349C538.818 431.435 539.579 432.527 540.331 433.624L541.156 433.058C541.911 434.16 542.656 435.267 543.392 436.38L542.558 436.932C543.291 438.039 544.014 439.153 544.727 440.271L545.57 439.733C546.289 440.86 546.998 441.992 547.697 443.13L546.845 443.653C547.541 444.786 548.227 445.925 548.904 447.068L549.765 446.559C550.444 447.708 551.113 448.861 551.772 450.02L550.903 450.514C551.56 451.67 552.208 452.831 552.845 453.997L553.722 453.518C554.363 454.69 554.993 455.866 555.612 457.048L554.726 457.513C555.343 458.689 555.95 459.871 556.546 461.057L557.439 460.609C558.039 461.801 558.627 462.999 559.205 464.202L558.304 464.635C558.88 465.833 559.445 467.036 560 468.243L560.909 467.826C561.466 469.039 562.012 470.256 562.547 471.478L561.631 471.879C562.165 473.096 562.687 474.318 563.198 475.544L564.121 475.159C564.635 476.391 565.138 477.627 565.629 478.868L564.7 479.236C565.189 480.471 565.668 481.711 566.135 482.954L567.071 482.603C567.54 483.852 567.998 485.105 568.445 486.363L567.503 486.698C567.947 487.949 568.381 489.204 568.803 490.464L569.751 490.146C570.175 491.412 570.587 492.681 570.988 493.955L570.034 494.255C570.433 495.522 570.821 496.793 571.197 498.068L572.156 497.785C572.533 499.064 572.899 500.346 573.253 501.633L572.288 501.898C572.641 503.178 572.981 504.463 573.31 505.751L574.279 505.503C574.609 506.797 574.928 508.094 575.235 509.394L574.262 509.624C574.566 510.914 574.859 512.208 575.139 513.506L576.117 513.294C576.399 514.598 576.669 515.905 576.928 517.215L575.946 517.409C576.204 518.713 576.449 520.021 576.682 521.332L577.667 521.157C577.9 522.467 578.121 523.78 578.33 525.097L577.342 525.254C577.55 526.564 577.746 527.878 577.931 529.195L578.921 529.056C579.106 530.379 579.279 531.705 579.44 533.035L578.447 533.155C578.606 534.469 578.753 535.786 578.887 537.106L579.882 537.005C580.018 538.33 580.141 539.658 580.252 540.989L579.255 541.072C579.366 542.397 579.464 543.725 579.55 545.055L580.548 544.991C580.634 546.318 580.708 547.649 580.769 548.982L579.77 549.028C579.831 550.351 579.88 551.677 579.917 553.005L580.917 552.977Z" stroke="black" stroke-width="2" stroke-dasharray="4 4"/>
<path d="M444.038 793.5C-14.3623 657.5 219.704 280.167 394.038 108.5L613.538 46.5L956.038 0L1044.54 276.5C1035.37 505.5 902.438 929.5 444.038 793.5Z" fill="#efd912" fill-opacity="0.2"/>
<path d="M450.211 236.833C308.068 174.891 203.188 307.569 168.016 382.651C57.8911 690.486 339.024 878.601 474.254 846.438C661.03 802.014 574.313 674.114 507.607 615.717C457.154 552.523 472.031 401.682 485.776 334.16C506.152 290.363 470.222 251.693 450.211 236.833Z" fill="#efd912" stroke="#efd912"/>
</svg>
