<svg width="762" height="853" viewBox="0 0 762 853" fill="none" xmlns="http://www.w3.org/2000/svg">
<path d="M680.94 419.979C680.967 421.313 680.984 422.651 680.993 423.99L679.993 423.996C679.998 424.664 680 425.332 680 426C680 426.668 679.998 427.336 679.993 428.003L680.993 428.01C680.984 429.349 680.967 430.686 680.94 432.021L679.94 432.001C679.914 433.332 679.878 434.66 679.834 435.986L680.834 436.019C680.789 437.35 680.736 438.678 680.675 440.004L679.676 439.958C679.614 441.289 679.543 442.617 679.463 443.944L680.462 444.003C680.381 445.339 680.292 446.672 680.195 448.003L679.197 447.93C679.1 449.256 678.994 450.58 678.879 451.902L679.875 451.988C679.76 453.314 679.636 454.638 679.503 455.959L678.508 455.859C678.375 457.186 678.232 458.51 678.082 459.832L679.075 459.945C678.924 461.274 678.763 462.599 678.594 463.922L677.602 463.795C677.434 465.114 677.256 466.43 677.07 467.743L678.061 467.883C677.874 469.201 677.679 470.517 677.475 471.829L676.487 471.676C676.282 472.994 676.068 474.31 675.846 475.622L676.832 475.789C676.609 477.106 676.377 478.42 676.137 479.731L675.153 479.551C674.914 480.858 674.666 482.162 674.409 483.462L675.39 483.656C675.132 484.964 674.865 486.269 674.59 487.571L673.612 487.365C673.336 488.669 673.052 489.969 672.759 491.267L673.734 491.487C673.44 492.789 673.138 494.088 672.827 495.384L671.855 495.15C671.545 496.442 671.226 497.73 670.9 499.014L671.869 499.261C671.539 500.555 671.202 501.846 670.856 503.133L669.89 502.873C669.544 504.159 669.19 505.442 668.827 506.721L669.789 506.994C669.425 508.277 669.053 509.557 668.672 510.833L667.714 510.547C667.334 511.819 666.947 513.088 666.55 514.353L667.505 514.652C667.105 515.927 666.698 517.199 666.281 518.467L665.331 518.156C664.916 519.42 664.493 520.681 664.062 521.937L665.008 522.262C664.575 523.523 664.134 524.781 663.684 526.034L662.743 525.697C662.294 526.947 661.838 528.194 661.373 529.437L662.31 529.788C661.842 531.039 661.366 532.286 660.882 533.53L659.95 533.167C659.467 534.406 658.977 535.642 658.478 536.873L659.405 537.248C658.904 538.484 658.396 539.715 657.879 540.942L656.957 540.554C656.441 541.78 655.917 543.002 655.385 544.219L656.302 544.62C655.767 545.843 655.224 547.062 654.674 548.277L653.763 547.864C653.214 549.075 652.657 550.282 652.093 551.484L652.998 551.909C652.432 553.115 651.857 554.317 651.275 555.514L650.376 555.077C649.794 556.274 649.204 557.467 648.607 558.655L649.5 559.104C648.901 560.296 648.293 561.484 647.678 562.667L646.791 562.205C646.178 563.384 645.557 564.559 644.928 565.729L645.809 566.202C645.178 567.377 644.54 568.547 643.893 569.712L643.019 569.227C642.373 570.391 641.721 571.549 641.06 572.703L641.928 573.2C641.265 574.357 640.595 575.51 639.917 576.658L639.056 576.15C638.381 577.294 637.698 578.434 637.008 579.568L637.862 580.088C637.168 581.228 636.467 582.362 635.759 583.492L634.911 582.961C634.205 584.087 633.491 585.209 632.77 586.326L633.61 586.868C632.886 587.988 632.156 589.104 631.417 590.214L630.585 589.66C629.849 590.766 629.106 591.868 628.356 592.964L629.181 593.528C628.427 594.63 627.666 595.725 626.898 596.816L626.081 596.24C625.315 597.327 624.542 598.409 623.763 599.485L624.573 600.072C623.79 601.151 623.001 602.226 622.205 603.295L621.403 602.698C620.609 603.764 619.807 604.824 619 605.879L619.793 606.487C618.982 607.546 618.164 608.6 617.339 609.648L616.554 609.029C615.732 610.073 614.902 611.112 614.067 612.146L614.844 612.775C614.005 613.811 613.16 614.842 612.308 615.868L611.539 615.228C610.689 616.251 609.833 617.267 608.969 618.278L609.73 618.927C608.864 619.941 607.991 620.95 607.112 621.953L606.36 621.293C605.484 622.292 604.601 623.286 603.711 624.273L604.454 624.943C603.562 625.933 602.662 626.918 601.757 627.897L601.023 627.218C600.12 628.194 599.211 629.163 598.296 630.127L599.021 630.816C598.102 631.782 597.177 632.743 596.246 633.698L595.53 632.999C594.602 633.951 593.668 634.896 592.727 635.835L593.433 636.543C592.49 637.485 591.54 638.421 590.584 639.35L589.887 638.633C588.934 639.56 587.975 640.48 587.01 641.394L587.697 642.12C586.729 643.037 585.754 643.947 584.774 644.852L584.096 644.116C583.119 645.017 582.135 645.912 581.146 646.8L581.814 647.545C580.822 648.435 579.824 649.319 578.821 650.197L578.162 649.444C577.162 650.319 576.156 651.187 575.143 652.048L575.792 652.81C574.776 653.674 573.755 654.532 572.728 655.384L572.089 654.614C571.066 655.462 570.037 656.303 569.003 657.138L569.63 657.916C568.593 658.753 567.55 659.583 566.501 660.406L565.884 659.62C564.838 660.441 563.788 661.255 562.731 662.062L563.338 662.856C562.278 663.666 561.213 664.469 560.141 665.265L559.545 664.463C558.479 665.255 557.408 666.041 556.331 666.819L556.917 667.63C555.836 668.411 554.751 669.185 553.66 669.952L553.085 669.134C551.997 669.898 550.905 670.656 549.807 671.406L550.371 672.232C549.27 672.984 548.164 673.73 547.052 674.468L546.499 673.635C545.393 674.37 544.282 675.097 543.165 675.818L543.708 676.658C542.587 677.381 541.462 678.097 540.332 678.805L539.801 677.958C538.674 678.664 537.543 679.363 536.406 680.055L536.926 680.909C535.788 681.602 534.644 682.288 533.496 682.966L532.987 682.105C531.844 682.78 530.696 683.448 529.543 684.109L530.04 684.976C528.883 685.639 527.721 686.295 526.555 686.943L526.069 686.068C524.906 686.714 523.739 687.353 522.567 687.984L523.041 688.864C521.868 689.495 520.691 690.119 519.51 690.735L519.047 689.848C517.87 690.462 516.687 691.068 515.501 691.667L515.951 692.56C514.76 693.161 513.565 693.754 512.365 694.34L511.927 693.441C510.732 694.024 509.534 694.6 508.33 695.167L508.757 696.072C507.553 696.64 506.344 697.2 505.132 697.753L504.717 696.843C503.508 697.394 502.295 697.937 501.078 698.472L501.48 699.388C500.259 699.925 499.033 700.454 497.803 700.976L497.413 700.055C496.191 700.573 494.964 701.084 493.734 701.587L494.112 702.512C492.88 703.016 491.643 703.512 490.402 703.999L490.036 703.069C488.799 703.555 487.559 704.033 486.314 704.504L486.668 705.439C485.419 705.911 484.166 706.375 482.909 706.831L482.568 705.891C481.322 706.343 480.072 706.787 478.818 707.223L479.147 708.168C477.889 708.605 476.627 709.035 475.362 709.457L475.046 708.508C473.784 708.928 472.519 709.34 471.251 709.744L471.554 710.697C470.283 711.102 469.009 711.498 467.731 711.886L467.44 710.93C466.172 711.315 464.9 711.692 463.624 712.062L463.902 713.022C462.623 713.393 461.339 713.755 460.053 714.109L459.787 713.145C458.505 713.498 457.219 713.842 455.93 714.179L456.182 715.146C454.894 715.483 453.602 715.811 452.306 716.13L452.067 715.16C450.779 715.477 449.489 715.787 448.195 716.088L448.422 717.062C447.124 717.365 445.823 717.659 444.518 717.944L444.304 716.967C443.004 717.252 441.701 717.529 440.395 717.797L440.596 718.776C439.293 719.043 437.987 719.302 436.679 719.553L436.491 718.571C435.188 718.82 433.883 719.061 432.574 719.294L432.749 720.278C431.437 720.512 430.121 720.737 428.802 720.954L428.64 719.967C427.327 720.183 426.01 720.39 424.69 720.589L424.839 721.578C423.527 721.776 422.211 721.965 420.892 722.146L420.756 721.156C419.442 721.336 418.125 721.508 416.806 721.672L416.929 722.665C415.605 722.829 414.279 722.985 412.95 723.132L412.839 722.138C411.518 722.284 410.193 722.422 408.866 722.552L408.963 723.547C407.642 723.676 406.318 723.796 404.992 723.908L404.907 722.912C403.585 723.023 402.261 723.126 400.934 723.221L401.005 724.218C399.674 724.313 398.34 724.4 397.004 724.477L396.946 723.479C395.62 723.556 394.291 723.625 392.961 723.685L393.006 724.684C391.68 724.744 390.351 724.796 389.02 724.839L388.988 723.839C387.662 723.882 386.333 723.916 385.002 723.942L385.022 724.942C383.687 724.968 382.35 724.985 381.01 724.994L381.004 723.994C380.336 723.998 379.668 724 379 724C378.332 724 377.664 723.998 376.997 723.994L376.99 724.994C375.651 724.985 374.314 724.968 372.979 724.942L372.998 723.942C371.668 723.916 370.339 723.882 369.013 723.839L368.98 724.839C367.65 724.796 366.321 724.744 364.995 724.684L365.04 723.685C363.709 723.625 362.381 723.556 361.054 723.479L360.996 724.477C359.66 724.4 358.327 724.313 356.995 724.218L357.067 723.221C355.74 723.126 354.415 723.023 353.093 722.912L353.009 723.908C351.683 723.796 350.359 723.676 349.037 723.547L349.134 722.552C347.807 722.422 346.483 722.284 345.161 722.138L345.051 723.132C343.722 722.985 342.395 722.829 341.072 722.665L341.195 721.672C339.875 721.509 338.558 721.336 337.244 721.156L337.108 722.147C335.79 721.965 334.474 721.776 333.161 721.578L333.31 720.589C331.991 720.39 330.674 720.183 329.36 719.967L329.198 720.954C327.879 720.737 326.564 720.512 325.251 720.279L325.426 719.294C324.118 719.061 322.812 718.82 321.51 718.571L321.322 719.553C320.013 719.302 318.707 719.043 317.405 718.776L317.606 717.797C316.299 717.529 314.996 717.252 313.696 716.967L313.482 717.944C312.178 717.659 310.876 717.365 309.578 717.062L309.805 716.088C308.512 715.787 307.221 715.478 305.934 715.16L305.694 716.131C304.399 715.811 303.107 715.483 301.818 715.146L302.071 714.179C300.781 713.842 299.496 713.498 298.213 713.145L297.948 714.109C296.661 713.755 295.378 713.393 294.098 713.022L294.376 712.062C293.101 711.692 291.829 711.315 290.56 710.93L290.27 711.886C288.992 711.498 287.717 711.102 286.446 710.697L286.75 709.744C285.481 709.34 284.216 708.928 282.955 708.508L282.639 709.457C281.373 709.035 280.112 708.606 278.854 708.168L279.182 707.223C277.928 706.787 276.678 706.343 275.432 705.891L275.091 706.831C273.834 706.375 272.582 705.911 271.333 705.439L271.686 704.504C270.442 704.033 269.201 703.555 267.964 703.069L267.598 704C266.358 703.512 265.121 703.016 263.888 702.512L264.266 701.587C263.036 701.084 261.81 700.574 260.587 700.055L260.197 700.976C258.967 700.454 257.741 699.925 256.52 699.388L256.923 698.472C255.705 697.937 254.492 697.394 253.283 696.843L252.869 697.753C251.656 697.2 250.447 696.64 249.243 696.072L249.67 695.167C248.467 694.6 247.268 694.024 246.074 693.441L245.635 694.34C244.435 693.754 243.24 693.161 242.049 692.56L242.5 691.667C241.313 691.069 240.131 690.462 238.953 689.848L238.491 690.735C237.309 690.119 236.132 689.495 234.96 688.864L235.434 687.984C234.261 687.353 233.094 686.714 231.931 686.069L231.446 686.943C230.279 686.295 229.117 685.639 227.96 684.976L228.458 684.109C227.304 683.448 226.156 682.78 225.013 682.105L224.504 682.966C223.356 682.288 222.213 681.602 221.074 680.909L221.594 680.055C220.457 679.363 219.326 678.664 218.199 677.958L217.668 678.805C216.538 678.097 215.413 677.381 214.293 676.658L214.835 675.818C213.719 675.098 212.607 674.37 211.501 673.635L210.948 674.468C209.837 673.73 208.73 672.984 207.629 672.232L208.194 671.406C207.096 670.656 206.003 669.898 204.916 669.134L204.34 669.952C203.249 669.185 202.164 668.411 201.084 667.63L201.67 666.819C200.593 666.041 199.521 665.255 198.455 664.463L197.859 665.266C196.788 664.469 195.722 663.667 194.662 662.857L195.269 662.062C194.213 661.255 193.162 660.441 192.117 659.62L191.499 660.407C190.45 659.583 189.407 658.753 188.37 657.916L188.998 657.138C187.963 656.303 186.934 655.462 185.911 654.614L185.273 655.384C184.245 654.533 183.224 653.675 182.209 652.81L182.857 652.049C181.845 651.187 180.838 650.319 179.838 649.444L179.18 650.197C178.176 649.319 177.178 648.435 176.186 647.545L176.854 646.801C175.865 645.912 174.882 645.018 173.904 644.117L173.227 644.852C172.246 643.948 171.271 643.037 170.303 642.12L170.991 641.394C170.025 640.48 169.066 639.56 168.114 638.634L167.417 639.351C166.46 638.421 165.511 637.485 164.567 636.543L165.273 635.836C164.333 634.896 163.398 633.951 162.47 633L161.754 633.698C160.823 632.743 159.898 631.783 158.979 630.816L159.704 630.127C158.789 629.163 157.88 628.194 156.977 627.218L156.243 627.897C155.338 626.918 154.439 625.934 153.546 624.943L154.289 624.273C153.4 623.286 152.517 622.293 151.64 621.293L150.888 621.953C150.009 620.95 149.136 619.942 148.27 618.928L149.031 618.278C148.168 617.267 147.311 616.251 146.461 615.229L145.692 615.868C144.84 614.842 143.995 613.811 143.156 612.775L143.934 612.146C143.098 611.113 142.269 610.074 141.447 609.029L140.661 609.648C139.836 608.6 139.018 607.546 138.207 606.487L139.001 605.879C138.193 604.824 137.392 603.764 136.598 602.698L135.796 603.295C134.999 602.226 134.21 601.152 133.428 600.072L134.237 599.485C133.458 598.409 132.685 597.327 131.92 596.24L131.102 596.816C130.334 595.726 129.573 594.63 128.819 593.529L129.645 592.964C128.894 591.868 128.151 590.766 127.416 589.66L126.583 590.214C125.845 589.104 125.114 587.989 124.39 586.868L125.23 586.326C124.509 585.209 123.795 584.088 123.089 582.961L122.241 583.492C121.533 582.363 120.832 581.228 120.138 580.088L120.993 579.568C120.302 578.434 119.619 577.294 118.944 576.15L118.083 576.659C117.405 575.511 116.735 574.358 116.072 573.2L116.94 572.703C116.28 571.549 115.627 570.391 114.981 569.227L114.107 569.712C113.461 568.547 112.822 567.377 112.191 566.202L113.072 565.729C112.443 564.559 111.822 563.385 111.209 562.206L110.322 562.667C109.707 561.484 109.1 560.296 108.5 559.104L109.393 558.655C108.796 557.467 108.206 556.274 107.624 555.077L106.725 555.515C106.143 554.317 105.568 553.115 105.002 551.909L105.907 551.484C105.343 550.282 104.786 549.075 104.237 547.865L103.326 548.277C102.776 547.062 102.233 545.843 101.699 544.62L102.615 544.219C102.083 543.002 101.559 541.78 101.043 540.554L100.121 540.942C99.6046 539.715 99.096 538.484 98.5956 537.249L99.5224 536.873C99.0236 535.642 98.5329 534.407 98.0503 533.167L97.1185 533.53C96.6342 532.287 96.1582 531.039 95.6903 529.788L96.627 529.438C96.1623 528.195 95.7057 526.948 95.2573 525.697L94.316 526.034C93.8666 524.781 93.4254 523.524 92.9925 522.262L93.9383 521.938C93.5069 520.681 93.0837 519.42 92.6688 518.156L91.7187 518.468C91.3026 517.199 90.8947 515.928 90.4953 514.652L91.4496 514.353C91.0536 513.088 90.6658 511.82 90.2863 510.548L89.328 510.834C88.9473 509.557 88.5749 508.277 88.211 506.994L89.1731 506.721C88.8104 505.442 88.4561 504.16 88.1102 502.874L87.1445 503.133C86.7984 501.846 86.4606 500.555 86.1314 499.261L87.1006 499.015C86.7738 497.73 86.4554 496.442 86.1455 495.151L85.1731 495.384C84.8621 494.089 84.5597 492.79 84.2658 491.488L85.2413 491.268C84.9484 489.97 84.6641 488.669 84.3884 487.365L83.4101 487.572C83.1347 486.27 82.868 484.965 82.6098 483.656L83.5909 483.463C83.3343 482.162 83.0862 480.858 82.8467 479.552L81.8631 479.732C81.6228 478.421 81.3911 477.107 81.1681 475.789L82.1541 475.623C81.9319 474.31 81.7184 472.995 81.5135 471.676L80.5254 471.83C80.3214 470.517 80.1261 469.201 79.9395 467.883L80.9296 467.743C80.7437 466.43 80.5665 465.114 80.3979 463.796L79.406 463.923C79.2369 462.6 79.0765 461.274 78.9249 459.946L79.9184 459.833C79.7675 458.511 79.6254 457.186 79.4921 455.859L78.4971 455.959C78.3643 454.638 78.2403 453.315 78.125 451.989L79.1212 451.902C79.0063 450.581 78.9001 449.257 78.8026 447.93L77.8053 448.004C77.7076 446.673 77.6186 445.34 77.5385 444.004L78.5367 443.944C78.4571 442.618 78.3863 441.289 78.3243 439.958L77.3254 440.005C77.2637 438.679 77.2106 437.35 77.1664 436.02L78.1658 435.987C78.1217 434.66 78.0864 433.332 78.0598 432.001L77.06 432.021C77.0334 430.687 77.0156 429.349 77.0067 428.01L78.0067 428.004C78.0022 427.336 78 426.668 78 426C78 425.332 78.0022 424.664 78.0067 423.997L77.0067 423.99C77.0156 422.651 77.0334 421.314 77.06 419.979L78.0598 419.999C78.0864 418.669 78.1217 417.34 78.1658 416.014L77.1664 415.981C77.2106 414.65 77.2636 413.322 77.3254 411.996L78.3243 412.042C78.3863 410.711 78.4571 409.383 78.5366 408.056L77.5384 407.997C77.6186 406.661 77.7075 405.328 77.8053 403.997L78.8026 404.07C78.9 402.744 79.0063 401.42 79.1212 400.098L78.1249 400.012C78.2402 398.686 78.3643 397.362 78.497 396.041L79.492 396.141C79.6254 394.814 79.7675 393.49 79.9184 392.168L78.9248 392.055C79.0764 390.726 79.2368 389.401 79.4059 388.078L80.3978 388.205C80.5664 386.886 80.7436 385.57 80.9295 384.257L79.9394 384.117C80.1261 382.799 80.3214 381.483 80.5253 380.171L81.5135 380.324C81.7183 379.006 81.9318 377.69 82.154 376.378L81.1681 376.211C81.391 374.894 81.6227 373.58 81.863 372.269L82.8466 372.449C83.0861 371.142 83.3342 369.839 83.5908 368.538L82.6098 368.344C82.8679 367.036 83.1346 365.731 83.41 364.429L84.3883 364.635C84.664 363.331 84.9484 362.031 85.2412 360.733L84.2657 360.513C84.5596 359.211 84.862 357.912 85.173 356.616L86.1454 356.85C86.4553 355.558 86.7737 354.27 87.1005 352.986L86.1313 352.739C86.4605 351.445 86.7983 350.154 87.1444 348.867L88.1101 349.127C88.456 347.841 88.8103 346.558 89.173 345.279L88.2109 345.006C88.5748 343.723 88.9472 342.443 89.3279 341.167L90.2862 341.453C90.6657 340.181 91.0535 338.912 91.4495 337.647L90.4952 337.348C90.8946 336.073 91.3024 334.801 91.7186 333.533L92.6687 333.844C93.0836 332.58 93.5068 331.319 93.9382 330.063L92.9924 329.738C93.4253 328.477 93.8665 327.219 94.3158 325.966L95.2572 326.303C95.7056 325.053 96.1621 323.806 96.6269 322.563L95.6902 322.212C96.158 320.961 96.6341 319.714 97.1184 318.47L98.0502 318.833C98.5328 317.594 99.0235 316.358 99.5223 315.127L98.5954 314.752C99.0959 313.516 99.6045 312.285 100.121 311.058L101.043 311.446C101.559 310.22 102.083 308.998 102.615 307.781L101.698 307.38C102.233 306.157 102.776 304.938 103.326 303.723L104.237 304.136C104.786 302.925 105.343 301.718 105.907 300.516L105.002 300.091C105.568 298.885 106.143 297.683 106.725 296.486L107.624 296.923C108.206 295.726 108.796 294.533 109.393 293.345L108.5 292.896C109.099 291.704 109.707 290.516 110.322 289.333L111.209 289.795C111.822 288.616 112.443 287.441 113.072 286.271L112.191 285.798C112.822 284.623 113.46 283.453 114.107 282.288L114.981 282.773C115.627 281.609 116.279 280.451 116.94 279.297L116.072 278.8C116.735 277.643 117.405 276.49 118.083 275.342L118.944 275.85C119.619 274.706 120.302 273.566 120.992 272.432L120.138 271.912C120.832 270.772 121.533 269.638 122.241 268.508L123.089 269.039C123.795 267.913 124.509 266.791 125.23 265.674L124.39 265.132C125.114 264.012 125.844 262.896 126.583 261.786L127.415 262.34C128.151 261.234 128.894 260.132 129.644 259.036L128.819 258.472C129.573 257.37 130.334 256.275 131.102 255.184L131.919 255.76C132.685 254.673 133.458 253.591 134.237 252.515L133.427 251.928C134.21 250.849 134.999 249.774 135.795 248.705L136.597 249.302C137.391 248.236 138.192 247.176 139 246.121L138.207 245.513C139.018 244.454 139.836 243.4 140.661 242.352L141.446 242.971C142.268 241.927 143.098 240.888 143.933 239.854L143.156 239.226C143.995 238.189 144.84 237.158 145.692 236.132L146.461 236.772C147.311 235.749 148.167 234.733 149.031 233.722L148.27 233.073C149.136 232.058 150.009 231.05 150.888 230.048L151.64 230.707C152.516 229.708 153.399 228.714 154.289 227.727L153.546 227.057C154.438 226.067 155.338 225.082 156.243 224.103L156.977 224.782C157.88 223.806 158.789 222.837 159.704 221.873L158.979 221.184C159.898 220.218 160.823 219.257 161.754 218.302L162.47 219.001C163.398 218.049 164.332 217.104 165.273 216.165L164.567 215.457C165.51 214.515 166.46 213.579 167.416 212.65L168.113 213.367C169.066 212.44 170.025 211.52 170.99 210.606L170.303 209.88C171.271 208.963 172.246 208.053 173.226 207.149L173.904 207.884C174.881 206.983 175.865 206.088 176.854 205.2L176.186 204.455C177.178 203.565 178.176 202.681 179.179 201.803L179.838 202.556C180.838 201.681 181.844 200.813 182.857 199.952L182.208 199.19C183.224 198.326 184.245 197.468 185.272 196.616L185.911 197.386C186.934 196.538 187.963 195.697 188.997 194.862L188.37 194.084C189.407 193.247 190.45 192.417 191.499 191.594L192.116 192.38C193.162 191.559 194.213 190.745 195.269 189.938L194.662 189.144C195.722 188.334 196.787 187.531 197.859 186.735L198.455 187.537C199.521 186.745 200.593 185.959 201.669 185.181L201.083 184.37C202.164 183.589 203.249 182.815 204.34 182.048L204.915 182.866C206.003 182.102 207.095 181.344 208.193 180.594L207.629 179.768C208.73 179.016 209.836 178.27 210.948 177.532L211.501 178.365C212.607 177.63 213.718 176.903 214.835 176.182L214.292 175.342C215.413 174.619 216.538 173.903 217.668 173.195L218.199 174.042C219.326 173.336 220.457 172.637 221.594 171.945L221.074 171.091C222.212 170.398 223.356 169.712 224.504 169.034L225.013 169.895C226.156 169.22 227.304 168.552 228.457 167.891L227.96 167.024C229.117 166.361 230.279 165.705 231.445 165.057L231.931 165.932C233.094 165.286 234.261 164.647 235.433 164.016L234.959 163.136C236.132 162.505 237.309 161.881 238.49 161.265L238.953 162.152C240.13 161.538 241.313 160.932 242.499 160.333L242.049 159.44C243.24 158.839 244.435 158.246 245.635 157.66L246.073 158.559C247.268 157.976 248.466 157.4 249.67 156.833L249.243 155.928C250.447 155.36 251.656 154.8 252.868 154.247L253.283 155.157C254.492 154.606 255.705 154.063 256.922 153.528L256.52 152.612C257.741 152.075 258.967 151.546 260.197 151.024L260.587 151.945C261.809 151.427 263.036 150.916 264.266 150.413L263.888 149.488C265.12 148.984 266.357 148.488 267.598 148.001L267.964 148.931C269.201 148.445 270.441 147.967 271.686 147.496L271.332 146.561C272.581 146.089 273.834 145.625 275.091 145.169L275.432 146.109C276.678 145.657 277.928 145.213 279.182 144.777L278.853 143.832C280.111 143.395 281.373 142.965 282.638 142.543L282.954 143.492C284.216 143.072 285.481 142.66 286.749 142.256L286.446 141.303C287.717 140.899 288.991 140.502 290.269 140.114L290.56 141.07C291.828 140.685 293.1 140.308 294.376 139.938L294.098 138.978C295.377 138.607 296.661 138.245 297.947 137.891L298.213 138.855C299.495 138.502 300.781 138.158 302.07 137.821L301.818 136.854C303.106 136.517 304.398 136.189 305.694 135.87L305.933 136.84C307.221 136.523 308.511 136.213 309.805 135.912L309.578 134.938C310.876 134.635 312.177 134.341 313.482 134.056L313.696 135.033C314.996 134.748 316.299 134.471 317.605 134.203L317.404 133.224C318.707 132.957 320.013 132.698 321.321 132.447L321.509 133.429C322.812 133.18 324.117 132.939 325.426 132.706L325.251 131.722C326.563 131.488 327.879 131.263 329.198 131.046L329.36 132.033C330.673 131.817 331.99 131.61 333.31 131.411L333.161 130.422C334.473 130.224 335.789 130.035 337.108 129.854L337.244 130.844C338.558 130.664 339.875 130.492 341.194 130.328L341.071 129.335C342.395 129.171 343.721 129.015 345.05 128.868L345.161 129.862C346.482 129.716 347.807 129.578 349.134 129.448L349.037 128.453C350.358 128.324 351.682 128.204 353.008 128.092L353.093 129.088C354.415 128.977 355.739 128.874 357.066 128.779L356.995 127.782C358.326 127.687 359.66 127.6 360.996 127.523L361.054 128.521C362.38 128.444 363.709 128.375 365.039 128.315L364.994 127.316C366.32 127.256 367.649 127.204 368.98 127.161L369.012 128.161C370.338 128.118 371.667 128.084 372.998 128.058L372.978 127.058C374.313 127.032 375.65 127.015 376.99 127.006L376.996 128.006C377.664 128.002 378.332 128 379 128C379.668 128 380.336 128.002 381.003 128.006L381.01 127.006C382.349 127.015 383.686 127.032 385.021 127.058L385.002 128.058C386.332 128.084 387.661 128.118 388.987 128.161L389.02 127.161C390.35 127.204 391.679 127.256 393.005 127.316L392.96 128.315C394.291 128.375 395.619 128.444 396.945 128.521L397.004 127.523C398.34 127.6 399.673 127.687 401.004 127.782L400.933 128.779C402.26 128.874 403.585 128.977 404.907 129.088L404.991 128.092C406.317 128.204 407.641 128.324 408.963 128.453L408.866 129.448C410.193 129.578 411.517 129.716 412.839 129.862L412.949 128.868C414.278 129.015 415.605 129.171 416.928 129.335L416.805 130.328C418.125 130.491 419.442 130.664 420.756 130.844L420.892 129.853C422.21 130.035 423.526 130.224 424.839 130.422L424.69 131.411C426.009 131.61 427.326 131.817 428.64 132.033L428.802 131.046C430.121 131.263 431.436 131.488 432.749 131.721L432.574 132.706C433.882 132.939 435.188 133.18 436.49 133.429L436.678 132.447C437.987 132.698 439.293 132.957 440.595 133.224L440.394 134.203C441.701 134.471 443.004 134.748 444.304 135.033L444.518 134.056C445.822 134.341 447.124 134.635 448.422 134.938L448.195 135.912C449.488 136.213 450.779 136.522 452.066 136.84L452.306 135.869C453.601 136.189 454.893 136.517 456.182 136.854L455.929 137.821C457.219 138.158 458.504 138.502 459.787 138.855L460.052 137.891C461.339 138.245 462.622 138.607 463.902 138.978L463.624 139.938C464.899 140.308 466.171 140.685 467.44 141.07L467.73 140.114C469.008 140.502 470.283 140.898 471.554 141.303L471.25 142.256C472.519 142.66 473.784 143.072 475.045 143.492L475.361 142.543C476.627 142.965 477.888 143.394 479.146 143.832L478.818 144.777C480.072 145.213 481.322 145.657 482.568 146.109L482.909 145.169C484.166 145.625 485.418 146.089 486.667 146.561L486.314 147.496C487.558 147.967 488.799 148.445 490.036 148.931L490.402 148C491.642 148.488 492.879 148.984 494.112 149.488L493.734 150.413C494.964 150.916 496.19 151.426 497.413 151.945L497.803 151.024C499.033 151.546 500.259 152.075 501.48 152.612L501.077 153.528C502.295 154.063 503.508 154.606 504.717 155.157L505.131 154.247C506.344 154.8 507.553 155.36 508.757 155.928L508.33 156.833C509.533 157.4 510.732 157.976 511.926 158.559L512.365 157.66C513.565 158.246 514.76 158.839 515.951 159.44L515.5 160.333C516.687 160.931 517.869 161.538 519.047 162.152L519.509 161.265C520.691 161.881 521.868 162.505 523.04 163.136L522.566 164.016C523.739 164.647 524.906 165.286 526.069 165.931L526.554 165.057C527.721 165.705 528.883 166.361 530.04 167.024L529.542 167.891C530.695 168.552 531.844 169.22 532.987 169.895L533.496 169.034C534.644 169.712 535.787 170.398 536.926 171.091L536.406 171.945C537.543 172.637 538.674 173.336 539.801 174.042L540.332 173.194C541.462 173.903 542.587 174.619 543.707 175.342L543.165 176.182C544.281 176.902 545.392 177.63 546.498 178.365L547.052 177.532C548.163 178.27 549.27 179.016 550.371 179.768L549.806 180.594C550.904 181.344 551.997 182.102 553.084 182.866L553.66 182.048C554.751 182.815 555.836 183.589 556.916 184.37L556.33 185.181C557.407 185.959 558.479 186.745 559.545 187.537L560.141 186.734C561.212 187.531 562.278 188.334 563.338 189.143L562.731 189.938C563.787 190.745 564.838 191.559 565.883 192.38L566.501 191.593C567.55 192.417 568.593 193.247 569.63 194.084L569.002 194.862C570.037 195.697 571.066 196.538 572.089 197.386L572.727 196.616C573.755 197.467 574.776 198.325 575.791 199.19L575.143 199.951C576.155 200.813 577.162 201.681 578.162 202.556L578.82 201.803C579.824 202.681 580.822 203.565 581.814 204.455L581.146 205.199C582.135 206.088 583.118 206.982 584.096 207.883L584.773 207.148C585.754 208.052 586.729 208.963 587.697 209.88L587.009 210.606C587.975 211.52 588.934 212.44 589.886 213.366L590.583 212.649C591.54 213.579 592.489 214.515 593.433 215.457L592.727 216.164C593.667 217.104 594.602 218.049 595.53 219L596.246 218.302C597.177 219.257 598.102 220.217 599.021 221.184L598.296 221.873C599.211 222.837 600.12 223.806 601.023 224.782L601.757 224.103C602.662 225.082 603.561 226.066 604.454 227.057L603.711 227.727C604.6 228.714 605.483 229.707 606.36 230.707L607.112 230.047C607.991 231.05 608.864 232.058 609.73 233.072L608.969 233.722C609.832 234.733 610.689 235.749 611.539 236.771L612.308 236.132C613.16 237.158 614.005 238.189 614.844 239.225L614.066 239.854C614.902 240.887 615.731 241.926 616.553 242.971L617.339 242.352C618.164 243.4 618.982 244.454 619.793 245.513L618.999 246.121C619.807 247.176 620.608 248.236 621.402 249.302L622.204 248.705C623.001 249.774 623.79 250.848 624.572 251.928L623.763 252.515C624.542 253.591 625.315 254.673 626.08 255.76L626.898 255.184C627.666 256.274 628.427 257.37 629.181 258.471L628.355 259.036C629.106 260.132 629.849 261.234 630.584 262.34L631.417 261.786C632.155 262.896 632.886 264.011 633.61 265.132L632.77 265.674C633.491 266.791 634.205 267.912 634.911 269.039L635.758 268.508C636.467 269.637 637.168 270.772 637.862 271.912L637.007 272.432C637.698 273.566 638.381 274.706 639.056 275.85L639.917 275.341C640.595 276.489 641.265 277.642 641.928 278.8L641.06 279.297C641.72 280.451 642.373 281.609 643.019 282.773L643.893 282.288C644.539 283.453 645.178 284.623 645.809 285.798L644.928 286.271C645.557 287.441 646.177 288.615 646.791 289.794L647.678 289.333C648.293 290.516 648.9 291.704 649.5 292.896L648.607 293.345C649.204 294.533 649.794 295.726 650.376 296.923L651.275 296.485C651.857 297.683 652.432 298.885 652.998 300.091L652.093 300.516C652.657 301.718 653.214 302.925 653.763 304.135L654.674 303.723C655.224 304.938 655.767 306.157 656.301 307.38L655.385 307.781C655.917 308.998 656.441 310.22 656.957 311.446L657.879 311.058C658.395 312.285 658.904 313.516 659.404 314.751L658.478 315.127C658.976 316.358 659.467 317.593 659.95 318.833L660.882 318.47C661.366 319.713 661.842 320.961 662.31 322.212L661.373 322.562C661.838 323.805 662.294 325.052 662.743 326.303L663.684 325.966C664.133 327.219 664.575 328.476 665.008 329.738L664.062 330.062C664.493 331.319 664.916 332.58 665.331 333.844L666.281 333.532C666.697 334.8 667.105 336.072 667.505 337.348L666.55 337.647C666.946 338.912 667.334 340.18 667.714 341.452L668.672 341.166C669.053 342.443 669.425 343.723 669.789 345.006L668.827 345.279C669.19 346.558 669.544 347.84 669.89 349.126L670.855 348.867C671.202 350.154 671.539 351.445 671.869 352.739L670.899 352.985C671.226 354.27 671.545 355.558 671.855 356.849L672.827 356.616C673.138 357.911 673.44 359.21 673.734 360.512L672.759 360.732C673.052 362.03 673.336 363.331 673.612 364.635L674.59 364.428C674.865 365.73 675.132 367.035 675.39 368.344L674.409 368.537C674.666 369.838 674.914 371.142 675.153 372.448L676.137 372.268C676.377 373.579 676.609 374.893 676.832 376.211L675.846 376.377C676.068 377.69 676.282 379.006 676.486 380.324L677.475 380.17C677.679 381.483 677.874 382.799 678.061 384.117L677.07 384.257C677.256 385.57 677.434 386.886 677.602 388.204L678.594 388.077C678.763 389.4 678.924 390.726 679.075 392.054L678.082 392.167C678.232 393.489 678.375 394.814 678.508 396.141L679.503 396.041C679.636 397.362 679.76 398.685 679.875 400.011L678.879 400.098C678.994 401.419 679.1 402.743 679.197 404.07L680.195 403.996C680.292 405.327 680.381 406.66 680.462 407.996L679.463 408.056C679.543 409.382 679.614 410.711 679.676 412.042L680.675 411.995C680.736 413.321 680.789 414.65 680.834 415.98L679.834 416.013C679.878 417.34 679.914 418.668 679.94 419.999L680.94 419.979Z" stroke="black" stroke-width="2" stroke-dasharray="4 4"/>
<path d="M290.763 168.935C330.774 236.355 432.862 375.721 521.131 393.824C618.817 396.281 785.108 443.862 668.775 614.522C584.546 738.085 216.688 777.251 72.3691 436.151C44.4906 349.077 28.4643 167.731 177.927 114.608C180.168 113.811 182.447 113.444 184.764 112.99L188.641 112.073C192.55 111.853 197.09 110.854 202.05 111.108C231.722 112.629 276.408 124.488 290.763 168.935Z" fill="#efd912"/>
<path d="M188.641 112.073C184.979 113.168 181.408 113.371 177.927 114.608M188.641 112.073L177.927 114.608M188.641 112.073C192.55 111.853 197.09 110.854 202.05 111.108C231.722 112.629 276.408 124.488 290.763 168.935C330.774 236.355 432.862 375.721 521.131 393.824C618.817 396.281 785.108 443.862 668.775 614.522C584.546 738.085 216.688 777.25 72.3691 436.151C44.4906 349.077 28.4643 167.731 177.927 114.608" stroke="#efd912"/>
</svg>
